<svg width="56" height="56" viewBox="0 0 56 56" fill="none" xmlns="http://www.w3.org/2000/svg"><path d="M10 24.5c.5 9 .3 11.3 0 21.2 0 1.8-.2 4.2 1.4 5 .8.5 2.4.2 3.3.2H37c1 0 2 0 3-.3s2-.8 2.4-1.7c.3-.6.5-1.3.5-2-.2-8.5-1.4-16.3-.9-25-2.8.5-5.6.2-8.5 0-.7 0-1 .1-1.5-.4-.4-.4-.9-1-1-1.5-.2-1.2.4-4.7.5-6-3.3-.2-7.6-.2-12.5 0-2.9.1-8.5-.5-9 1" fill="#FFD15A"/><path fill-rule="evenodd" clip-rule="evenodd" d="M16.2 21.7h-.8c-1.6.1-1.6-2.4 0-2.5h4.2c1.6 0 1.6 2.5 0 2.4h-.9a49.6 49.6 0 000 2.9v.1c0 1.6-2.4 1.6-2.5 0v-3z" fill="#1E2882"/><path d="M32.5 7c0-2.3 2-1.8 3.7-1.8 1.8 0 3.8-.2 5.5 0 1.3.3 2.2.6 2.5 1.8.2.6 0 1.3 0 2l.3 4.3c0 1.6 2.6 1.6 2.5 0-.1-2.4.2-5.1-.4-7.5-.5-2.4-2.6-3-4.8-3-2.8-.2-6-.6-8.8 0-2.3.3-3 2-3 4.1-.1 1.7 2.4 1.7 2.5 0zM29.8 13.2c-.1 2.7-1.1 8.7 2 10.1 1.5.8 3.6.4 5.2.5h8.2c1.6 0 1.6-2.5 0-2.5H34.6c-1.1 0-1.7.1-2.2-1.2-.2-.6-.1-1.5-.2-2.2v-4.7c0-1.6-2.4-1.6-2.4 0z" fill="#1E2882"/><path d="M35 8.1c-.3.2-.2 1-.2 1.3v7.3c.1.1 0 .5.2.7.1.4.5.4.8.4 1.9 0 3.8-.4 5.7-.2l.3-.2.4-.2c.2-.4.2-.2.2-.6v-1c-.2-1.9-.2-6.6-.4-7.3-.1-.3-.5-.4-1-.4l-2.8-.1c-.8 0-2.7 0-3.1.3z" fill="#F68559"/><path d="M34.2 7.2c-1.2 1.6-.6 4.2-.6 6 0 1.5-.6 4.4.9 5.4.8.6 1.8.5 2.8.4 1.3 0 3 .1 4.3-.1.3 0 .5-.2.9-.4.3-.2-.3.2 0 0 .5-.4.9-.6 1-1.2.4-1.3 0-3 0-4.3-.1-1.5.1-3.2-.2-4.7-.4-1.7-1.9-1.5-3.3-1.6-1.7-.1-3.6-.4-5.2.2-1.5.6-.9 3 .6 2.4.9-.3 1.9-.3 2.8-.3.6 0 1.8.4 2.3.2.6.1.7 0 .3-.5V9c-.2.6.2 2.3.2 3l.1 3.4v1.2c0 .6.2.5.4-.4-.2 0-.3 0-.5.2l-.2.2c.2-.4-.1-.5-.7-.3-.7-.2-1.7 0-2.5.2h-1c-.5.2-.7 0-.5-.6-.2-.6 0-1.7 0-2.3l-.1-2.7V9c.9-1.1-.8-3-1.8-1.7z" fill="#F68559"/><path d="M36.9 11.8a3 3 0 00-.3 2c.2.9 1.2 1.4 2 1.4.9 0 1.7-.4 2-1.1.6-1 .3-1.9-.3-2.6-.7-.7-1.7-1-2.5-.5-.7.4-1.2 1.2-1.2 2 0 1 1 1.7 1.9 1.6 1-.1 2-1 1.7-2.2-.2-.5-.7-.9-1.2-.9h-.1c-.4 0-.9.3-1.1.6-.3.7-.1 1.5.5 1.8.6.3 1.4.1 1.7-.5l-1.1.6-1.2-1c0-.5.1-.8.5-.9h.1.1l.6 1c-.1 0-.1 0 0 0l-.2.1h-.5c0-.1 0-.1 0 0h.1c0 .1 0 .1 0 0v-.4l.3-.1h-.1.1c-.1 0-.1 0 0 0 0 0 .2 0 .2.2l.2.5v-.1-.1c-.1.2 0 0 0-.1.2-.4 0-.1 0 0 .3-.6.2-1.4-.4-1.7-.6-.3-1.5-.2-1.8.4z" fill="#1E2882"/><path d="M36.3 18.5c1.3-2 3.8-1.7 5.2 0l.9-2.1c-2.3.2-4.7.2-7.1.2-1.6 0-1.6 2.5 0 2.5 2.4 0 4.8 0 7.1-.2 1.1-.1 1.6-1.3.9-2.2-2.5-3-7-2.7-9.1.5-1 1.4 1.2 2.7 2 1.3zM26.9 25.5h-4.6c-1.7 0-1.7-2.5 0-2.5h4.6c1.6 0 1.6 2.5 0 2.5zM38 31.4H16.8c-1.7 0-1.7-2.5 0-2.5H38c1.6 0 1.6 2.5 0 2.5zM16.6 37.3h21.6c1.6 0 1.6-2.5 0-2.5H16.6c-1.6 0-1.6 2.5 0 2.5zM38.2 43.2H16.6c-1.6 0-1.6-2.5 0-2.5h21.6c1.6 0 1.6 2.5 0 2.5z" fill="#1E2882"/></svg>