<svg width="80" height="80" viewBox="0 0 80 80" fill="none" xmlns="http://www.w3.org/2000/svg"><path d="M27 66.4c-7-2.2-9.2-7.2-14.2-11.5-1-.3-2-.3-3-.2L10 59c.1 2.2-.3 4.8.4 6.9.7 2 .8 3.8 2.6 4.7 1 .5 4.2.2 5.3.3 4.2.3 8.3.3 12.4 0-.8-2.2-1.8-4-3.6-4.5z" fill="#F68559"/><path d="M27.5 65c-4.3-1.4-7-4-10-7.2-2.4-2.7-3.9-4.6-7.6-4.5a1.4 1.4 0 00-1.4 1.4c0 4.5-1.3 15 4.1 17.2 2.3.9 5.7.4 8.2.5 3.3 0 6.6 0 10-.3.7 0 1.6-.8 1.2-1.6-1-2.5-2-4.4-4.5-5.5-1.6-.6-2.3 2-.7 2.6 1.2.8 2.2 2.1 2.6 3.6l1.3-1.7c-4.6.3-9.1 0-13.7 0-2.2 0-3.3.5-4.7-2a12 12 0 01-1-3.8c-.3-3 0-6 0-9L9.8 56c3.8-.1 6.2 4.3 8.6 6.7 2.4 2.3 5.2 4 8.3 5 1.6.5 2.3-2.1.7-2.6z" fill="#F68559"/><path d="M31.3 61.5c-2.6-1-2.5-4-2.3-5.4.3-1.3 0-3 2-4.2 2.6-1.6 5.6 1.1 6.7.8a4.9 4.9 0 003.2-2.8c.6-1.4 2.2-7.6 1.3-8.8-1-1.3-4.1 1.5-5.7 1.3-2-.3-4 0-6 .5l.3-5c0-1.7 2-4.6 1.2-6-.7-1.3-4.4-4.3-5.7-4.1-1.3.2-4.4 4.5-4.8 6-.4 1.3 2 3.2 2.4 4.8l1 4.5H15c-1 0-4 0-4.6 1.3-.5.9-.7 6.1-.6 10.3 1-.1 2 0 2.9.2 5 4.3 7.1 9.3 14.3 11.5 1.8.4 2.8 2.4 3.6 4.4.5-3.7 2.2-7.1 4.8-9.8-1.2.2-3.8.6-4.2.5z" fill="#F68559"/><path d="M32 60.3c-2-1.1-2.6-6-.2-7.3 2-1.1 3.9 1.2 5.9 1 3.3-.2 4.7-3.9 5.3-6.6.5-2 2-6.4-.5-7.7-1.4-.7-2.8.2-4 .6-2.6 1-5.6.6-8.4 1.3l1.7 1.3c.2-2.7.4-5.1 1.2-7.8.5-1.3.8-2.5.2-3.9-1-1.8-4.7-5-7-4.8-2.4.2-5 4.2-5.7 6.2a3.6 3.6 0 000 3.1c.6 1.2 1.6 2 2 3.2.6 1.3.7 3.1 1 4.5l1.3-1.7h-9.7c-1.6 0-3.7 0-5 1-1 1-1.2 2.1-1.3 3.4-.2 2.9-.3 5.7-.3 8.6A1.3 1.3 0 0010 56c4-.2 6.6 5 9.3 7.3 3.2 3 8.5 3.9 10.2 8a1.4 1.4 0 001.3.8h.1a1.4 1.4 0 001.3-1c.5-3.4 2-6.6 4.4-9.2a1.4 1.4 0 00-1.3-2.2 17 17 0 01-3.9.4c-1.7-.1-1.7 2.6 0 2.7 1.5.2 3.2-.3 4.6-.5L34.6 60a19.8 19.8 0 00-5.1 10.3l1.3-1 1.2 1c-.8-1.8-1.6-3.8-3.4-4.9-2.7-1.6-5.4-2.1-7.8-4.4-3.5-3.2-5.7-8-11-7.8l1.4 1.4c0-2.4-.9-9 1.4-10.1 1.3-.7 3.8-.2 5.1-.2H25a1.4 1.4 0 001.3-1.7l-1-4.5c-.4-1-1.2-1.8-1.6-2.8-.7-1.5-.4-2.2.4-3.5.7-1 1.7-2.7 3.1-2.5.8.1 2.4 1.5 2.8 2.1 1 1.3.7 2.3.2 3.8-.8 2.5-.7 5-1 7.6a1.3 1.3 0 001.7 1.3c2.5-.6 5 0 7.3-.7 2.2-.7 3.4-2.4 2.9.8-.2 1.7-.6 3.4-1.2 5-1.5 3.3-3.7 1.1-6 .9-6.7-.8-8.3 9.6-3.1 12.5 1.4.8 2.8-1.5 1.3-2.4z" fill="#F68559"/><path d="M41 62.1a4.2 4.2 0 00-2.8-1.8c-1-.2-1 .7-2 .6a4 4 0 00-.7.1 17.2 17.2 0 00-4.7 9.8H32c2.5-.3 8 0 8.7-1.5.5-1.3.9-2.8 1-4.2 0-1-.2-2-.7-3z" fill="#F68559"/><path d="M42.1 61.4a5.6 5.6 0 00-3.9-2.4c-.6 0-1.1.1-1.6.4l-1.6.4c-1.4.6-2.7 3.1-3.4 4.4-1.1 2-1.8 4-2 6.3-.2.8.2 1.7 1.2 1.7 3-.3 7.9.5 10.4-1.5 1-.8 1.4-2.5 1.6-3.8.4-1.9.2-3.8-.7-5.5-.7-1.5-3-.1-2.3 1.4.6 1.3.7 2.7.3 4.1-.3 1.3-.4 1.8-1.7 2-2.5.6-5.1.4-7.6.6l1.3 1.7c.4-2.9 1.5-5.5 3.2-7.8.9-1.2.5-.8 1.8-1.2.3-.1.6-.5 1-.6.6 0 1.4.8 1.7 1.2 1 1.3 3.4 0 2.3-1.4z" fill="#F68559"/><path d="M44 42.7l-.1-.2c.2.4.3.5 0 .2z" fill="#FFB69B"/><path d="M45.1 42L45 42a1.3 1.3 0 10-2.3 1.3l.4.6a1.3 1.3 0 002.3-.7c0-.3 0-.6-.2-.9V42a1.3 1.3 0 00-2.4 1.4l.1.2 2.1-1.7.1.2-.1-.2-2.3 1.3.1.2a1.3 1.3 0 102.3-1.4z" fill="#FFB69B"/><path d="M43.3 23.6c-.3 0-2.6 0-2.8-.4 0 0 .6-3.1.5-5.3-6.7-.2-13 1.4-18.9 6.3a22 22 0 00-5.8 17h4c2.2 0 3.2-.2 3-2.8l-1.5-3.6c-.2-2-.4-4.6.6-6.5.4-.7 3.8-2 4.3-2 2 0 6 1.5 6.7 3.6.5 1.5-1.7 7.8-1.7 9.4 0 1 .9.6 1.7.7 1.7.1 8.1-1.1 10.5 2.5-.7-1-2.4-4-2.4-5 0-1.6-.9-2.4-1-4l.1-.7c.2-.2.2-1.8.4-1.7 1.1 0 2.2-.1 3.3-.5 2.3-.8 5.6-1 5.6-3.8 0-3-4.9-3.8-6.6-3.2z" fill="#FFD15A"/><path d="M43.3 22.3c-1.4 0-1.4 1.2-1.3-.3.1-1.4.4-2.7.4-4.1a1.4 1.4 0 00-1.4-1.4c-7 0-14 1.8-19.4 6.4-5.2 4.4-7 11.7-6.7 18.3a1.4 1.4 0 001.4 1.3c2.4.2 7.2 1 8.2-2.2.7-2.4-1.3-4.7-1.5-7.1-.2-2.7.4-4.9 3.2-5.4 1.9-.4 5.5.8 5.9 3 .5 3-2.8 6.5-1.5 9.5a1.4 1.4 0 001.3 1c3.5.4 8.3-1.3 10.8 1.9 1 1.3 3.2.2 2.3-1.4-.9-1.3-1.6-2.8-2.2-4.4-.2-.7-1.5-4.1-.7-5 .5-.6 3-.7 4-1 1.3-.4 2.8-.7 3.8-1.7 4.8-4.4-3-8.3-7-7.4-1.7.3-1 3 .7 2.6 1.1-.3 4-.1 4.6 1 .6 1.2-.5 2-1.3 2.5-.6.3-1.2.4-1.9.5-1.8.5-4.5 0-5.4 2-1.7 3.7 1.3 9.2 3.1 12.3l2.3-1.3c-3.4-4.4-8.4-2.7-13-3.3l1.2 1c-.7-1.6.9-4.7 1.2-6.3.2-1.3.6-2.8.1-4.1-1.1-2.9-6-4.7-8.8-4-4.3 1-5.5 3.8-5.3 8 0 1.5.4 3 1 4.3.3 1 .7 1.4 0 2.1-.9 1-4 .3-5.2.3l1.4 1.3c-.3-6.1 1.3-12.7 6.3-16.7s11-5.3 17.1-5.3L39.7 18c0 1.8-.4 3.5-.5 5.3a1.3 1.3 0 00.7 1.2 7 7 0 003.4.5c1.7 0 1.7-2.8 0-2.6zM23.3 9.5l-7.5.2c-1.5 0-3.8 0-4.8 1.2-1.5 1.7-.8 6.9-1 9.3v1.3l-.1 2c6.3-2 11.7-7.7 13.4-14zm-7.6 5.4l.4 1.2a4 4 0 01-.4-1.2z" fill="#FFD15A"/><path d="M23.3 8.1l-8.8.3c-1.8.1-3.7.3-4.8 2-1.1 1.6-1 3.8-1 5.6a215.4 215.4 0 010 8 1.4 1.4 0 001.5.8 22.9 22.9 0 0014.4-15c.5-1.6-2-2.4-2.6-.7A20 20 0 019.5 22l1.7 1.4c.1-3.3-.3-7.2.3-10.4.5-2.4 3-2 4.8-2 2.4 0 4.7-.2 7-.3 1.8 0 1.8-2.8 0-2.7z" fill="#FFD15A"/><path d="M14.5 15.6l.2.5c0-.2.1.3.2.3l2.4-1-.1-.2-.1-.2v-.1l-.1-.3a1.3 1.3 0 10-2.6.7c.1.5.3 1 .6 1.4a1.3 1.3 0 002.3 0c.2-.4.2-.7.1-1-.1-.5-.3-1-.6-1.4a1.3 1.3 0 00-1.8-.5 1.4 1.4 0 00-.5 1.8z" fill="#FFD15A"/><path d="M41 16.8c-.4-2-.3-5.3-1.8-6.5-1.5-1.3-5.4-.7-7.3-.8h-2c.8 2.2.7 5.3-1.7 6.3-1.4.7-4-1.6-4.7-3 0 1.4.2 4.8-.7 5 .7-1.4.7-3.6.7-5 .7 1.4 2.9 2.8 4.3 2.1 2.4-1 2.9-3.2 2.2-5.5h-6.7c-1.7 6.4-7.1 12-13.4 14v6.3l.2 6.6c0 .9-.3 3.6 1 4.7 1.6 0 2.3 0 4 .2a23 23 0 016.5-17.3c6-4.8 12.7-6.1 19.4-6v-1z" fill="#FFD15A"/><path d="M42.2 16.5c-.3-2.7-.2-6.3-3-7.7-2.5-1.4-6.5-.6-9.2-.7a1.3 1.3 0 00-1.3 1.7c.4 1.5.8 3-.8 4-1.5.8-2.3-.3-3.2-1.7a1.3 1.3 0 00-2.5.7c0 .7.4 3.5-.3 4l2.2 1.3c.6-1.7.9-3.5.8-5.3l-2.5.7c3.8 5.7 10.3 1.7 8.9-4.4A1.4 1.4 0 0030 8a101.9 101.9 0 00-7.4.3c-.3.2-.4.4-.5.7A20.1 20.1 0 019.5 22a1.4 1.4 0 00-1 1.4l.2 12.7c0 1.5 0 3.2.7 4.6 1.1 2.2 3.6 1.6 5.8 1.7a1.3 1.3 0 001.3-1.3c-.1-6.2 2-13 7-17 5-3.9 11.4-5 17.6-5a1.4 1.4 0 001.3-1.3l-.1-1.1c-.1-1.7-2.8-1.7-2.7 0l.1 1 1.3-1.3c-7 0-14.3 1.5-19.8 6-5.3 4.5-7.6 12-7.4 18.6l1.4-1.3c-1.4 0-2.6.2-3.4-.9-.5-.8-.4-1.5-.4-2.4v-2.8c0-3.4-.2-6.8-.1-10.2l-1 1.2A23 23 0 0024.6 9.8l-1.3 1H30l-1.2-1c.9 2.3-.5 3-4 2.3a1.4 1.4 0 00-2.5.6 13 13 0 01-.7 4.7c-.5 1.4 1.3 2 2.3 1.3 1.5-1.2 1-4.3 1-6l-2.4.7c1.2 2 3.9 4.6 6.5 3.5 3-1.3 3-5.2 2.3-7.9L30 10.7c2 .1 4.3-.3 6.2 0 3.4.6 3.2 3.6 3.6 6.4.2 1.8 2.8 1 2.5-.6z" fill="#FFD15A"/><path d="M53.2 51.3L51 50.2c-1.2-.8-1-3-1.1-4.4 0-1.4 1.1-3 .8-4.4-.2-.8-2.5-.5-3.2-.5-1.5.2-4.3-1.2-4.8.3-.5 1.6-.7 6.6-.4 8.2.2 1.6-1.3 3.2-2.5 4.3-1 .8-3-.1-4.3-.4-1.2-.2-2.5-1.2-3.7-1-1.8.2-3.8 2.6-3.6 4.5.1.7.4 1.3.8 1.8 8.7.8 18.3-1 24.2-7.3z" fill="#B8DDF0"/><path d="M53.9 50.1c-3.4-1.5-2.5-3.7-2-6.6.1-1 .5-2.2-.3-3-.7-1-1.9-1-3-1-1.5 0-2.9-.3-4.3-.3-3 0-3.2 2.3-3.4 4.8-.1 1.7.2 3.5 0 5.1-.6 5-4 3-7 2.2a5.3 5.3 0 00-6.7 3.5 4.7 4.7 0 000 3.6c1 1.8 1.9 1.6 3.8 1.7 8.4.4 17-1.7 23-7.8 1.3-1.3-.6-3.2-1.8-2a27 27 0 01-20.1 7.1c-1.8 0-2.3.5-2-1.5.6-2.4 2.1-2 4.1-1.6 1.3.3 2.6 1 4 1 2.2.1 4-1.6 4.8-3.5 1-2 .4-4.7.5-7 .1-1.5-.2-2.7 1.5-2.8 1 0 2.2 0 3.3.2.9.2.6-.4 1 .6l-.6 1.8a11 11 0 000 3.7c.4 2.4 1.7 3.2 3.8 4.2 1.6.7 3-1.6 1.4-2.4zM64.2 56.3c0 5.5 0 10.5 3.5 13.9a3 3 0 002.2-.7c1.8-2 1.2-7.8 1.4-11.1.1-2.3.3-4.6.3-7.3v-5.2c-.2-1.9.2-4-1-5.2-.8-.8-3.6-.9-5-.7-2.3.2-5 .3-7.4.6-.1 1.5 1.9 2.5 1.8 4-.2 2-.7 4-1.4 5.9 1.8 2.7 5.6 4 5.6 5.8z" fill="#B8DDF0"/><path d="M62.9 56.3c0 3.4 0 6.9 1 10 .5 1.7 1.8 4.7 3.6 5.2 5.4 1.4 5-7.7 5-10.5 0-3.5.3-7 .3-10.4 0-2.7.5-6.1-.2-8.8-1.6-5.3-10.6-3-14.5-2.6a1.4 1.4 0 00-1.3 1.7c.3 1.9 1.8 2.7 1.7 4.7-.2 1.5-1.5 3.3-1.3 4.7.2 3.1 5.2 3.6 5.7 6.4.3 1.7 2.9 1 2.6-.7-.3-1.4-1.2-2-2.2-3-1.7-1.4-3.3-1.7-3-4 .3-1.4 1-2.9 1-4.4-.1-1.8-1.6-2.7-2-4.4L58.2 42l7.5-.6c2-.1 4-.4 4.5 2 .9 3.8.1 8.9 0 12.8l-.2 5.4c0 1.6.4 4.3-.4 5.7-.8 1.5-1.4 1.3-2.4 0-.6-1.2-1-2.3-1.1-3.5a40 40 0 01-.4-7.4 1.3 1.3 0 00-2.7 0z" fill="#B8DDF0"/><path d="M64.2 56.3c0-1.8-3.8-3.1-5.7-5.8-.2.5-.4 1-.8 1.4-.6.7-1.6.9-3.4.1-5 8-17 7.2-25.8 6.4.8 1 2 1.8 3.3 2 1.8.3 5.5-1.1 7.3-1 1.8.2 3 .8 3.4 2.7.2 1 .4 4 .5 5.2.3 1.4-.4 1.4.3 2.1a2.1 2.1 0 002 .7h22.4c-3.5-3.3-3.5-8.3-3.5-13.8z" fill="#B8DDF0"/><path d="M65.5 56c-.5-2.9-4.3-4.3-6-6.5a1.3 1.3 0 00-2.1.3c-.6 1.3-1.5 1.4-2.7 1a1.4 1.4 0 00-1.6.6C48 59 36.5 57.8 28.5 57c-1.3-.1-1.7 1.5-1 2.3 3 3.3 5.8 2.1 9.6 1.6 3.8-.6 4.2 1.8 4.4 5 .1 1-.1 2.5.3 3.5 1.4 3.2 7 2 9.7 2a3696.3 3696.3 0 0017-.2 1.4 1.4 0 00.2-2c-3.3-3.6-3.1-8.4-3.1-13a1.3 1.3 0 00-2.7 0c0 5.4 0 10.8 3.9 14.9l1-2.3-15.1-.1H49c-.8 0-3.1.3-3.8 0-1.6-.7-.6-.3-1-1.4a13 13 0 01-.2-2.7c-.3-2.5-.4-5.1-3.1-6.1-4-1.6-8.4 2.5-11.6-1l-1 2.2c9.3.9 21 1.7 27-7l-1.5.6c2.7 1 4.5.5 5.7-2.2l-2 .2c1.2 1.6 5 3.4 5.3 5.3.4 1.7 3 1 2.6-.7z" fill="#B8DDF0"/><path d="M71.7 39c1.9-1.8 1.6-4.7 1.8-7.2.2-3.2.2-6.4 0-9.6-.2-5.1.3-11.6-5.4-13.8-4.4-1.7-9.4-1.2-14-1.2-4 0-10.9-1-14.2 2-1.7 1.6.9 4 2.6 2.6 1.1-1.1 4-.9 5.5-1h5.8c3.5 0 7.2-.3 10.7.3 2.7.5 4.4 1.3 5 4.2.5 2.4.4 5 .5 7.5v6.5c0 1.7.4 6-.9 7.2-1.6 1.6.9 4.1 2.6 2.5z" fill="#1E2882"/><path d="M47.2 7.1c-5.1-.3-8.9 2-8.6 7.5.3 4 .5 10.6 6 9.9 2.2-.3 4.7-1.5 5.1 1.8.2 1.5-.2 3.5-2 3.9-1 .2-1.5-.3-2.4-.5-2.5-.8-5-.4-5.8 2.4a7.6 7.6 0 001.5 7.4c2.5 2.5 6.9 2 10 2 2.4 0 2.4-3.5 0-3.5-1.6 0-3.6.2-5.2-.2-1.3-.3-4-2.2-3-4 .8-1.8 4 .7 5.8 0 4.7-1.3 6-7.4 3.5-11.2a4.8 4.8 0 00-4.6-2.4c-.8 0-3.2 1.2-3.9.9-1-.5-1-2.9-1-3.8-.5-4.2-.8-7 4.6-6.6 2.3.2 2.3-3.4 0-3.6z" fill="#1E2882"/><path d="M49.4 40c.2 3-1.3 5.6-.5 8.8.7 2.8 2.7 4.2 5.7 4.2 2.7 0 5.3-1.3 6.3-4 1.2-3-.8-6.6-1.4-9.6l-1.7 2.3c4 0 8-.5 12-1.5 3.2-1 3.8-4.3 3.8-7.2 0-2.3-3.6-2.3-3.6 0s-.1 3.4-2.3 3.9a46.8 46.8 0 01-10.8 1.4 1.8 1.8 0 00-.9 2c.4 1.9 1.2 3.6 1.5 5.5.4 2.3-1.9 5.7-4.5 3-2.3-2.2.2-6.1 0-8.9-.2-2.2-3.7-2.3-3.6 0z" fill="#1E2882"/></svg>